<svg id="圖層_1" data-name="圖層 1" xmlns="http://www.w3.org/2000/svg" viewBox="0 0 391.18 56.69"><defs><style>.cls-1{font-size:61.68px;font-family:Montserrat-SemiBold, Montserrat;font-weight:600;letter-spacing:0.03em;}.cls-2,.cls-5,.cls-6{fill:none;}.cls-2{letter-spacing:-0.05em;}.cls-3{letter-spacing:0.02em;}.cls-4{letter-spacing:0.02em;}.cls-6{letter-spacing:0.03em;}</style></defs><title>my page</title><text class="cls-1" transform="translate(0.58 50.88)">P<tspan class="cls-2" x="46.32" y="0">O</tspan><tspan class="cls-3" x="95.16" y="0">R</tspan><tspan x="141.17" y="0">T</tspan><tspan class="cls-4" x="179.84" y="0">F</tspan><tspan class="cls-5" x="220.18" y="0">O</tspan><tspan x="273.65" y="0">LI</tspan><tspan class="cls-6" x="333.35" y="0">O</tspan></text><path d="M72.24,51.38c-12.09,0-26.77-10.83-21.89-21.9,7.12-16.15,9.8-21.89,21.89-21.89s21.9,7.18,21.9,21.89A21.89,21.89,0,0,1,72.24,51.38Z"/><path d="M225.88,29A21.91,21.91,0,0,1,247.79,7.06c12.1,0,25,10.2,21.9,21.91-5.23,20-9.8,21.91-21.9,21.91S225.88,44.51,225.88,29Z"/><path d="M350.4,8c12-3.88,33.33,5.64,32,18.21-1.89,18.35-9.42,24.12-18,25.34-12.51,1.78-30.29-.63-28.81-14.74C337.19,22.24,338.38,11.88,350.4,8Z"/></svg>