<svg id="圖層_1" data-name="圖層 1" xmlns="http://www.w3.org/2000/svg" viewBox="0 0 99.21 99.21"><defs><style>.cls-1{fill:#a0b4c8;}</style></defs><title>my page-2</title><path class="cls-1" d="M37.48,68.64A1.34,1.34,0,0,0,38.83,70H49.74l-2.07-2.66H37.48Z"/><path class="cls-1" d="M45.4,27.83h8.41a.4.4,0,0,0,.4-.41v-2H45v2A.4.4,0,0,0,45.4,27.83Z"/><path class="cls-1" d="M37.48,65.12H46l-3.12-4a2.91,2.91,0,0,1-.63-2.69,3.2,3.2,0,0,1,2.2-2A4.69,4.69,0,0,1,49.52,58l2.37,2.95c.21.27.7,0,.7-.49V44a3.39,3.39,0,1,1,6.77,0v4.61a3.66,3.66,0,0,1,1.18-.2,3.41,3.41,0,0,1,1.18.21v-11H37.48Z"/><path class="cls-1" d="M50.07,4.61c-24.85,0-34.26,3.84-45,45-6.27,24,20.15,45,45,45a45,45,0,0,0,45-45C95.07,17.68,74.93,4.61,50.07,4.61ZM62.34,80a1.11,1.11,0,0,1,0-2.21h0a1.11,1.11,0,0,1,0,2.21ZM74.58,37.29,71.3,40.57A1.11,1.11,0,0,1,69.73,39l1.4-1.4H63.94v13a3.39,3.39,0,0,1,1.17-.2,3.31,3.31,0,0,1,3.19,2.22,3.66,3.66,0,0,1,1.38-.28,3.34,3.34,0,0,1,3.39,3.53V68a.49.49,0,0,1,0,.12,9.37,9.37,0,0,1-1.11,3.74,4.24,4.24,0,0,0-.61,2.39v3.5A2.24,2.24,0,0,1,69.09,80H67.3a1.11,1.11,0,0,1,0-2.21h1.79a0,0,0,0,0,0,0v-3.5a6.38,6.38,0,0,1,.85-3.4,7.29,7.29,0,0,0,.88-2.91V55.85a1.33,1.33,0,0,0-.37-1,1.2,1.2,0,0,0-.81-.31,1.16,1.16,0,0,0-1.17,1.32v5.26a1.11,1.11,0,0,1-2.22,0V53.9a1.34,1.34,0,0,0-.36-1,1.23,1.23,0,0,0-.82-.3,1.15,1.15,0,0,0-1.17,1.31V60a1.11,1.11,0,0,1-2.22,0V52a1.34,1.34,0,0,0-.36-1,1.21,1.21,0,0,0-.81-.3A1.16,1.16,0,0,0,59.36,52v6.86a1.11,1.11,0,1,1-2.21,0V44a1.18,1.18,0,1,0-2.35,0v16.4a2.87,2.87,0,0,1-1.75,2.88,2.15,2.15,0,0,1-.75.13,2.8,2.8,0,0,1-2.14-1.13h0l-2.37-3a2.49,2.49,0,0,0-2.71-.82c-.49.16-.72.39-.76.54a.86.86,0,0,0,.25.68l9,11.54a9,9,0,0,1,2,6.43,0,0,0,0,0,0,0h1.8a1.11,1.11,0,1,1,0,2.21h-1.8a2.24,2.24,0,0,1-2.24-2.24,6.8,6.8,0,0,0-1.53-5.07l-.34-.43H38.83a3.57,3.57,0,0,1-3.57-3.57v-31H28.09L29.48,39a1.11,1.11,0,1,1-1.57,1.56l-3.28-3.28a1.12,1.12,0,0,1,0-1.57l3.28-3.28a1.12,1.12,0,0,1,1.57,0,1.1,1.1,0,0,1,0,1.56l-1.4,1.4h7.18V26.82a3.57,3.57,0,0,1,3.57-3.56H60.39A3.57,3.57,0,0,1,64,26.82V35.4h7.19L69.73,34a1.1,1.1,0,0,1,0-1.56,1.12,1.12,0,0,1,1.57,0l3.28,3.28A1.1,1.1,0,0,1,74.58,37.29Z"/><path class="cls-1" d="M60.39,25.47h-4v2a2.63,2.63,0,0,1-2.62,2.63H45.4a2.63,2.63,0,0,1-2.62-2.63v-2h-4a1.35,1.35,0,0,0-1.35,1.35V35.4H61.73V26.82A1.36,1.36,0,0,0,60.39,25.47Z"/></svg>