<svg id="圖層_1" data-name="圖層 1" xmlns="http://www.w3.org/2000/svg" viewBox="0 0 99.21 99.21"><defs><style>.cls-1{fill:#a0b4c8;}</style></defs><title>my page</title><path class="cls-1" d="M61.71,76.19a2.39,2.39,0,1,0-2.39-2.39A2.39,2.39,0,0,0,61.71,76.19Z"/><rect class="cls-1" x="37.42" y="25.02" width="9.11" height="14.09"/><polygon class="cls-1" points="22.02 30.88 22.02 33.05 26.25 33.05 25.88 30.88 22.02 30.88"/><path class="cls-1" d="M73,41.28H29.87l3.69,21.48H69ZM39.07,59.06a1.09,1.09,0,1,1-2.17,0V45.4a1.09,1.09,0,0,1,2.17,0Zm8.67,0a1.09,1.09,0,1,1-2.17,0V45.4a1.09,1.09,0,0,1,2.17,0Zm8.67,0a1.08,1.08,0,1,1-2.16,0V45.4a1.08,1.08,0,1,1,2.16,0Zm8.68,0a1.09,1.09,0,1,1-2.17,0V45.4a1.09,1.09,0,0,1,2.17,0Z"/><path class="cls-1" d="M93.16,39.93c-2-16.85-12.92-32-48.9-36.62C19.61.12-.2,41.51,6.82,65.35S34.16,92.06,62.7,95.81C90.36,99.45,96,64.62,93.16,39.93ZM37.63,69.25H69.94a1.09,1.09,0,0,1,0,2.17H65.58a4.5,4.5,0,0,1,.68,2.38,4.56,4.56,0,1,1-9.11,0,4.5,4.5,0,0,1,.68-2.38H44.75a4.5,4.5,0,0,1,.68,2.38A4.55,4.55,0,1,1,37,71.39a6.08,6.08,0,0,1-5.46-6V63.94L26.62,35.21H20.94a1.08,1.08,0,0,1-1.08-1.08V29.79a1.08,1.08,0,0,1,1.08-1.08h5.85a1.08,1.08,0,0,1,1.07.9l1.64,9.5h5.75V23.94a1.08,1.08,0,0,1,1.08-1.08H47.61a1.08,1.08,0,0,1,1.08,1.08v4.77H68.42a1.08,1.08,0,0,1,1.08,1.08v9.32h4.77a1.08,1.08,0,0,1,1.07,1.28L71,64a1.08,1.08,0,0,1-1.06.89H33.73v.42A3.91,3.91,0,0,0,37.63,69.25Z"/><path class="cls-1" d="M40.88,76.19a2.39,2.39,0,1,0-2.39-2.39A2.39,2.39,0,0,0,40.88,76.19Z"/><path class="cls-1" d="M67.34,30.88H48.7V33h9.42a1.09,1.09,0,1,1,0,2.17H48.7v3.9H67.34Zm-2.91,4a1.09,1.09,0,0,1-.77.31,1.06,1.06,0,0,1-1.08-1.08,1.09,1.09,0,0,1,.31-.77,1.14,1.14,0,0,1,.77-.32,1.09,1.09,0,0,1,1.09,1.09A1.14,1.14,0,0,1,64.43,34.9Z"/></svg>