<svg id="圖層_1" data-name="圖層 1" xmlns="http://www.w3.org/2000/svg" viewBox="0 0 99.21 99.21"><defs><style>.cls-1{fill:#a0b4c8;}</style></defs><title>my page-3</title><path class="cls-1" d="M53.51,39.07h-2v2.06c0,.47,0,1.34,0,2.06h2a2.06,2.06,0,1,0,0-4.11Z"/><polygon class="cls-1" points="38.51 45.32 42.05 45.32 40.28 40.65 38.51 45.32"/><path class="cls-1" d="M60.33,61.26a9.73,9.73,0,0,1-19.45,0,9.93,9.93,0,0,1,.19-1.89H35.85V63a.13.13,0,0,0,.13.13h1.31a1.13,1.13,0,0,1,1.1.88A12.41,12.41,0,0,0,40,68a1.12,1.12,0,0,1-.16,1.39l-.92.92a.13.13,0,0,0,0,.1.1.1,0,0,0,0,.09l2.47,2.48a.14.14,0,0,0,.19,0l.93-.92a1.12,1.12,0,0,1,1.39-.16,12.22,12.22,0,0,0,3.93,1.63,1.11,1.11,0,0,1,.87,1.09v1.31a.13.13,0,0,0,.13.13h3.51a.13.13,0,0,0,.13-.13V74.57a1.12,1.12,0,0,1,.88-1.09,12.41,12.41,0,0,0,3.93-1.63,1.11,1.11,0,0,1,1.38.16l.93.92a.14.14,0,0,0,.09,0,.14.14,0,0,0,.1,0l2.48-2.48a.15.15,0,0,0,0-.19l-.93-.92A1.12,1.12,0,0,1,61.2,68,12.88,12.88,0,0,0,62.83,64a1.12,1.12,0,0,1,1.09-.88h1.31a.13.13,0,0,0,.13-.13h0V59.37H60.14A9.18,9.18,0,0,1,60.33,61.26Z"/><path class="cls-1" d="M50.59,4.61c-24.85,0-30.37,11.79-45,45-10,22.74,20.15,45,45,45a45,45,0,0,0,45-45C95.59,19.37,75.45,4.61,50.59,4.61ZM69.31,59.37H67.6V63a2.38,2.38,0,0,1-2.37,2.37h-.45a14.7,14.7,0,0,1-1.23,3l.31.31a2.38,2.38,0,0,1,0,3.35l-2.48,2.49a2.38,2.38,0,0,1-3.35,0l-.32-.32a14.65,14.65,0,0,1-3,1.24v.44a2.37,2.37,0,0,1-2.37,2.37H48.85a2.38,2.38,0,0,1-2.37-2.37v-.44a14.89,14.89,0,0,1-3-1.24l-.32.32a2.38,2.38,0,0,1-3.35,0L37.35,72a2.37,2.37,0,0,1,0-3.35l.31-.31a14.19,14.19,0,0,1-1.24-3H36A2.37,2.37,0,0,1,33.62,63V59.37H31.9a9.05,9.05,0,0,1-4.81-16.71A10.94,10.94,0,0,1,37.61,28.79a11,11,0,0,1,1.29.07,12.62,12.62,0,0,1,23.41,0A11,11,0,0,1,74.52,39.71a10.88,10.88,0,0,1-.4,2.95,9,9,0,0,1,4.24,7.66A9.06,9.06,0,0,1,69.31,59.37Z"/><path class="cls-1" d="M72.28,44.19a1.12,1.12,0,0,1-.56-1.4,8.5,8.5,0,0,0,.57-3.08,8.72,8.72,0,0,0-10.48-8.5,1.11,1.11,0,0,1-1.3-.76,10.39,10.39,0,0,0-19.81,0,1.12,1.12,0,0,1-1.3.76,8.69,8.69,0,0,0-9.91,11.58,1.12,1.12,0,0,1-.56,1.4,6.82,6.82,0,0,0,3,13H45.58a1.12,1.12,0,1,1,0,2.23H43.36a7.49,7.49,0,1,0,14.49,0H55.63a1.12,1.12,0,1,1,0-2.23H69.31a6.82,6.82,0,0,0,3-13ZM45.1,50.24a1.09,1.09,0,0,1-.39.08,1.12,1.12,0,0,1-1.05-.73l-.77-2H37.65l-.77,2a1.12,1.12,0,1,1-2.09-.79L39,37.72v0a1.37,1.37,0,0,1,2.54,0v0L45.75,48.8A1.11,1.11,0,0,1,45.1,50.24Zm5.51,9.13h0a1.12,1.12,0,1,1,1.13-1.12A1.12,1.12,0,0,1,50.6,59.37Zm2.9-13.95h-2V49.2a1.12,1.12,0,0,1-2.24,0V38a1.12,1.12,0,0,1,1.12-1.11h3.13a4.29,4.29,0,1,1,0,8.58Zm10,3.57a1.12,1.12,0,1,1-2.23,0V38a1.12,1.12,0,0,1,2.23,0Z"/></svg>